<mxfile host="app.diagrams.net" agent="Mozilla/5.0 (Windows NT 10.0; Win64; x64) AppleWebKit/537.36 (KHTML, like Gecko) Chrome/131.0.0.0 Safari/537.36" version="25.0.3">
  <diagram name="Page-1" id="LqxcKTWL7Gu5hskK_QhF">
    <mxGraphModel dx="834" dy="493" grid="0" gridSize="10" guides="1" tooltips="1" connect="1" arrows="1" fold="1" page="1" pageScale="1" pageWidth="850" pageHeight="1100" background="#FFFFFF" math="0" shadow="0">
      <root>
        <mxCell id="0" />
        <mxCell id="1" parent="0" />
        <mxCell id="6zxmSAC6mnDZGyxhmd1F-4" style="edgeStyle=orthogonalEdgeStyle;rounded=0;orthogonalLoop=1;jettySize=auto;html=1;labelBackgroundColor=none;strokeColor=#006658;fontColor=default;" parent="1" source="6zxmSAC6mnDZGyxhmd1F-2" target="6zxmSAC6mnDZGyxhmd1F-3" edge="1">
          <mxGeometry relative="1" as="geometry" />
        </mxCell>
        <mxCell id="6zxmSAC6mnDZGyxhmd1F-2" value="&lt;b&gt;&lt;font style=&quot;font-size: 14px;&quot;&gt;Document&lt;/font&gt;&lt;/b&gt;" style="rounded=1;whiteSpace=wrap;html=1;labelBackgroundColor=none;fillColor=#21C0A5;strokeColor=#006658;fontColor=#5C5C5C;" parent="1" vertex="1">
          <mxGeometry x="210" y="190" width="120" height="60" as="geometry" />
        </mxCell>
        <mxCell id="6zxmSAC6mnDZGyxhmd1F-11" style="edgeStyle=orthogonalEdgeStyle;rounded=0;orthogonalLoop=1;jettySize=auto;html=1;labelBackgroundColor=none;strokeColor=#006658;fontColor=default;" parent="1" source="6zxmSAC6mnDZGyxhmd1F-3" target="6zxmSAC6mnDZGyxhmd1F-10" edge="1">
          <mxGeometry relative="1" as="geometry" />
        </mxCell>
        <mxCell id="6zxmSAC6mnDZGyxhmd1F-18" style="edgeStyle=orthogonalEdgeStyle;rounded=0;orthogonalLoop=1;jettySize=auto;html=1;exitX=1;exitY=0.75;exitDx=0;exitDy=0;entryX=0;entryY=0.75;entryDx=0;entryDy=0;labelBackgroundColor=none;strokeColor=#006658;fontColor=default;" parent="1" source="6zxmSAC6mnDZGyxhmd1F-3" target="6zxmSAC6mnDZGyxhmd1F-10" edge="1">
          <mxGeometry relative="1" as="geometry" />
        </mxCell>
        <mxCell id="6zxmSAC6mnDZGyxhmd1F-3" value="&lt;b&gt;&lt;font style=&quot;font-size: 14px;&quot;&gt;Embedding Model&lt;/font&gt;&lt;/b&gt;" style="rounded=1;whiteSpace=wrap;html=1;labelBackgroundColor=none;fillColor=#21C0A5;strokeColor=#006658;fontColor=#5C5C5C;" parent="1" vertex="1">
          <mxGeometry x="410" y="190" width="120" height="60" as="geometry" />
        </mxCell>
        <mxCell id="6zxmSAC6mnDZGyxhmd1F-14" style="edgeStyle=orthogonalEdgeStyle;rounded=0;orthogonalLoop=1;jettySize=auto;html=1;entryX=0;entryY=0.5;entryDx=0;entryDy=0;labelBackgroundColor=none;strokeColor=#006658;fontColor=default;" parent="1" source="6zxmSAC6mnDZGyxhmd1F-5" target="6zxmSAC6mnDZGyxhmd1F-13" edge="1">
          <mxGeometry relative="1" as="geometry">
            <Array as="points">
              <mxPoint x="400" y="340" />
              <mxPoint x="400" y="340" />
            </Array>
          </mxGeometry>
        </mxCell>
        <mxCell id="6zxmSAC6mnDZGyxhmd1F-5" value="&lt;b&gt;&lt;font style=&quot;font-size: 14px;&quot;&gt;User&lt;/font&gt;&lt;/b&gt;" style="shape=umlActor;verticalLabelPosition=bottom;verticalAlign=top;html=1;outlineConnect=0;labelBackgroundColor=none;fillColor=#21C0A5;strokeColor=#006658;fontColor=#5C5C5C;" parent="1" vertex="1">
          <mxGeometry x="280" y="320" width="40" height="70" as="geometry" />
        </mxCell>
        <mxCell id="6zxmSAC6mnDZGyxhmd1F-19" style="edgeStyle=orthogonalEdgeStyle;rounded=0;orthogonalLoop=1;jettySize=auto;html=1;exitX=0;exitY=1;exitDx=0;exitDy=0;entryX=0.5;entryY=0;entryDx=0;entryDy=0;labelBackgroundColor=none;strokeColor=#006658;fontColor=default;" parent="1" source="6zxmSAC6mnDZGyxhmd1F-10" target="6zxmSAC6mnDZGyxhmd1F-13" edge="1">
          <mxGeometry relative="1" as="geometry" />
        </mxCell>
        <mxCell id="6zxmSAC6mnDZGyxhmd1F-10" value="&lt;b&gt;&lt;font style=&quot;font-size: 14px;&quot;&gt;Vector Database&lt;/font&gt;&lt;/b&gt;" style="shape=process;whiteSpace=wrap;html=1;backgroundOutline=1;labelBackgroundColor=none;fillColor=#21C0A5;strokeColor=#006658;fontColor=#5C5C5C;" parent="1" vertex="1">
          <mxGeometry x="600" y="190" width="140" height="60" as="geometry" />
        </mxCell>
        <mxCell id="6zxmSAC6mnDZGyxhmd1F-17" style="edgeStyle=orthogonalEdgeStyle;rounded=0;orthogonalLoop=1;jettySize=auto;html=1;labelBackgroundColor=none;strokeColor=#006658;fontColor=default;" parent="1" source="6zxmSAC6mnDZGyxhmd1F-13" edge="1">
          <mxGeometry relative="1" as="geometry">
            <mxPoint x="420" y="260" as="targetPoint" />
          </mxGeometry>
        </mxCell>
        <mxCell id="6zxmSAC6mnDZGyxhmd1F-13" value="&lt;b&gt;&lt;font style=&quot;font-size: 14px;&quot;&gt;Query with Context&lt;/font&gt;&lt;/b&gt;" style="rounded=1;whiteSpace=wrap;html=1;labelBackgroundColor=none;fillColor=#21C0A5;strokeColor=#006658;fontColor=#5C5C5C;" parent="1" vertex="1">
          <mxGeometry x="450" y="310" width="120" height="60" as="geometry" />
        </mxCell>
        <mxCell id="6zxmSAC6mnDZGyxhmd1F-20" value="&lt;b&gt;&lt;font style=&quot;font-size: 14px;&quot;&gt;Query&lt;/font&gt;&lt;/b&gt;" style="text;html=1;align=center;verticalAlign=middle;whiteSpace=wrap;rounded=0;labelBackgroundColor=none;fontColor=#5C5C5C;" parent="1" vertex="1">
          <mxGeometry x="360" y="310" width="60" height="30" as="geometry" />
        </mxCell>
        <mxCell id="6zxmSAC6mnDZGyxhmd1F-21" value="&lt;b style=&quot;forced-color-adjust: none; color: rgb(0, 0, 0); font-family: Helvetica; font-style: normal; font-variant-ligatures: normal; font-variant-caps: normal; letter-spacing: normal; orphans: 2; text-align: center; text-indent: 0px; text-transform: none; widows: 2; word-spacing: 0px; -webkit-text-stroke-width: 0px; white-space: normal; background-color: rgb(251, 251, 251); text-decoration-thickness: initial; text-decoration-style: initial; text-decoration-color: initial;&quot;&gt;&lt;font style=&quot;font-size: 14px;&quot;&gt;Context&lt;/font&gt;&lt;/b&gt;" style="text;whiteSpace=wrap;html=1;labelBackgroundColor=none;fontColor=#5C5C5C;" parent="1" vertex="1">
          <mxGeometry x="540" y="250" width="70" height="40" as="geometry" />
        </mxCell>
        <mxCell id="6zxmSAC6mnDZGyxhmd1F-27" style="edgeStyle=orthogonalEdgeStyle;rounded=0;orthogonalLoop=1;jettySize=auto;html=1;exitX=0;exitY=0;exitDx=0;exitDy=60;exitPerimeter=0;labelBackgroundColor=none;strokeColor=#006658;fontColor=default;" parent="1" source="6zxmSAC6mnDZGyxhmd1F-23" edge="1">
          <mxGeometry relative="1" as="geometry">
            <mxPoint x="320" y="400" as="targetPoint" />
          </mxGeometry>
        </mxCell>
        <mxCell id="6zxmSAC6mnDZGyxhmd1F-23" value="&lt;font style=&quot;font-size: 14px;&quot;&gt;&lt;b&gt;LLM&lt;/b&gt;&lt;/font&gt;" style="shape=cube;whiteSpace=wrap;html=1;boundedLbl=1;backgroundOutline=1;darkOpacity=0.05;darkOpacity2=0.1;labelBackgroundColor=none;fillColor=#21C0A5;strokeColor=#006658;fontColor=#5C5C5C;" parent="1" vertex="1">
          <mxGeometry x="660" y="340" width="80" height="80" as="geometry" />
        </mxCell>
        <mxCell id="6zxmSAC6mnDZGyxhmd1F-26" style="edgeStyle=orthogonalEdgeStyle;rounded=0;orthogonalLoop=1;jettySize=auto;html=1;exitX=1;exitY=0.75;exitDx=0;exitDy=0;entryX=-0.023;entryY=0.19;entryDx=0;entryDy=0;entryPerimeter=0;labelBackgroundColor=none;strokeColor=#006658;fontColor=default;" parent="1" source="6zxmSAC6mnDZGyxhmd1F-13" target="6zxmSAC6mnDZGyxhmd1F-23" edge="1">
          <mxGeometry relative="1" as="geometry" />
        </mxCell>
        <mxCell id="6zxmSAC6mnDZGyxhmd1F-28" value="&lt;b&gt;&lt;font style=&quot;font-size: 15px;&quot;&gt;Response&lt;/font&gt;&lt;/b&gt;" style="text;html=1;align=center;verticalAlign=middle;whiteSpace=wrap;rounded=0;labelBackgroundColor=none;fontColor=#5C5C5C;" parent="1" vertex="1">
          <mxGeometry x="450" y="400" width="60" height="30" as="geometry" />
        </mxCell>
      </root>
    </mxGraphModel>
  </diagram>
</mxfile>
